<svg width="20" height="20" viewBox="0 0 20 20" fill="none" xmlns="http://www.w3.org/2000/svg">
<g id="Frame" clip-path="url(#clip0_1_1245)">
<path id="Vector" d="M13.75 11.25L16.25 13.75L13.75 16.25" stroke="white" stroke-width="1.2" stroke-linecap="square" stroke-linejoin="round"/>
<path id="Vector_2" d="M3.75 13.15H3.15V14.35H3.75V13.15ZM16.25 14.35C16.5814 14.35 16.85 14.0814 16.85 13.75C16.85 13.4186 16.5814 13.15 16.25 13.15V14.35ZM3.75 14.35H16.25V13.15H3.75V14.35Z" fill="white"/>
<path id="Vector_3" d="M6.25 8.75L3.75 6.25L6.25 3.75" stroke="white" stroke-width="1.2" stroke-linecap="square" stroke-linejoin="round"/>
<path id="Vector_4" d="M16.25 6.85H16.85V5.65H16.25V6.85ZM3.75 5.65C3.41863 5.65 3.15 5.91863 3.15 6.25C3.15 6.58137 3.41863 6.85 3.75 6.85V5.65ZM16.25 5.65H3.75V6.85H16.25V5.65Z" fill="white"/>
</g>
<defs>
<clipPath id="clip0_1_1245">
<rect width="20" height="20" fill="white"/>
</clipPath>
</defs>
</svg>
