<svg width="24" height="24" viewBox="0 0 24 24" fill="none" xmlns="http://www.w3.org/2000/svg">
<g id="more-horizontal 1" opacity="0.6">
<g id="Group">
<path id="Vector" fill-rule="evenodd" clip-rule="evenodd" d="M6.5 11.25C6.5 11.5815 6.6317 11.8995 6.86612 12.1339C7.10054 12.3683 7.41848 12.5 7.75 12.5C8.08152 12.5 8.39946 12.3683 8.63388 12.1339C8.8683 11.8995 9 11.5815 9 11.25C9 10.9185 8.8683 10.6005 8.63388 10.3661C8.39946 10.1317 8.08152 10 7.75 10C7.41848 10 7.10054 10.1317 6.86612 10.3661C6.6317 10.6005 6.5 10.9185 6.5 11.25ZM12.75 12.5C12.4185 12.5 12.1005 12.3683 11.8661 12.1339C11.6317 11.8995 11.5 11.5815 11.5 11.25C11.5 10.9185 11.6317 10.6005 11.8661 10.3661C12.1005 10.1317 12.4185 10 12.75 10C13.0815 10 13.3995 10.1317 13.6339 10.3661C13.8683 10.6005 14 10.9185 14 11.25C14 11.5815 13.8683 11.8995 13.6339 12.1339C13.3995 12.3683 13.0815 12.5 12.75 12.5ZM17.75 12.5C17.4185 12.5 17.1005 12.3683 16.8661 12.1339C16.6317 11.8995 16.5 11.5815 16.5 11.25C16.5 10.9185 16.6317 10.6005 16.8661 10.3661C17.1005 10.1317 17.4185 10 17.75 10C18.0815 10 18.3995 10.1317 18.6339 10.3661C18.8683 10.6005 19 10.9185 19 11.25C19 11.5815 18.8683 11.8995 18.6339 12.1339C18.3995 12.3683 18.0815 12.5 17.75 12.5Z" fill="white"/>
</g>
</g>
</svg>
