<svg width="34" height="32" viewBox="0 0 34 32" fill="none" xmlns="http://www.w3.org/2000/svg">
<g id="_1421344023328">
<path id="Vector" d="M32.6105 19.8705C30.461 28.442 21.7286 33.6584 13.1058 31.521C4.4867 29.3841 -0.760315 20.702 1.39007 12.1312C3.53856 3.5587 12.271 -1.65814 20.8911 0.478775C29.5132 2.61569 34.7599 11.2987 32.6102 19.8706L32.6104 19.8705H32.6105Z" fill="#F7931A"/>
<path id="Vector_2" d="M24.0966 13.7204C24.4169 11.5911 22.7864 10.4466 20.5567 9.68305L21.28 6.79879L19.514 6.36131L18.8099 9.16962C18.3456 9.0545 17.8688 8.94603 17.3949 8.8385L18.1042 6.01165L16.3392 5.57416L15.6155 8.45748C15.2313 8.37051 14.854 8.28456 14.4879 8.194L14.4899 8.18493L12.0545 7.58031L11.5847 9.45555C11.5847 9.45555 12.895 9.75414 12.8674 9.77252C13.5825 9.94997 13.7118 10.4206 13.6904 10.7937L12.8664 14.0795C12.9157 14.0919 12.9796 14.1099 13.05 14.1381C12.9911 14.1235 12.9284 14.1077 12.8634 14.0922L11.7085 18.6952C11.6211 18.9112 11.3993 19.2354 10.8993 19.1123C10.917 19.1378 9.61569 18.7938 9.61569 18.7938L8.73889 20.8035L11.0371 21.3731C11.4646 21.4797 11.8836 21.5912 12.2962 21.6961L11.5654 24.6135L13.3294 25.0509L14.0531 22.1646C14.535 22.2946 15.0027 22.4146 15.4605 22.5277L14.7392 25.4005L16.5053 25.8379L17.236 22.9261C20.2475 23.4927 22.5118 23.2642 23.4649 20.5563C24.2329 18.376 23.4267 17.1185 21.8424 16.2984C22.9963 16.0338 23.8655 15.2793 24.0972 13.7206L24.0967 13.7202L24.0966 13.7204ZM20.0617 19.3455C19.5159 21.5257 15.8235 20.3471 14.6264 20.0516L15.5962 16.1866C16.7932 16.4837 20.6321 17.0717 20.0617 19.3455H20.0617ZM20.6078 13.6888C20.11 15.6719 17.0368 14.6644 16.0398 14.4174L16.9191 10.9121C17.916 11.1591 21.1265 11.6202 20.608 13.6888H20.6078Z" fill="white"/>
</g>
</svg>
