<svg width="46" height="46" viewBox="0 0 46 46" fill="none" xmlns="http://www.w3.org/2000/svg">
<g id="&#240;&#159;&#166;&#134; icon &#34;Binance Coin Cryptocurrency&#34;">
<g id="Group">
<path id="Vector" d="M22.9122 45.8245C35.5663 45.8245 45.8245 35.5663 45.8245 22.9122C45.8245 10.2582 35.5663 0 22.9122 0C10.2582 0 0 10.2582 0 22.9122C0 35.5663 10.2582 45.8245 22.9122 45.8245Z" fill="#F3BA2F"/>
<path id="Vector_2" d="M17.3502 20.6268L22.9122 15.0648L28.477 20.6296L31.7134 17.3933L22.9122 8.5921L14.1139 17.3904L17.3502 20.6268ZM8.59204 22.9123L11.8284 19.6759L15.0647 22.9123L11.8284 26.1486L8.59204 22.9123ZM17.3502 25.1977L22.9122 30.7597L28.477 25.1949L31.7134 28.4298L22.9122 37.2324L14.1139 28.4341L14.1096 28.4298L17.3502 25.1977ZM30.7596 22.9123L33.996 19.6759L37.2323 22.9123L33.996 26.1486L30.7596 22.9123ZM26.1944 22.9094H26.1972V22.9123L22.9122 26.1973L19.6314 22.918L19.6257 22.9123L19.6314 22.908L20.2057 22.3323L20.4849 22.053L22.9122 19.6272L26.1958 22.9108L26.1944 22.9094Z" fill="white"/>
</g>
</g>
</svg>
