<svg width="20" height="18" viewBox="0 0 20 18" fill="none" xmlns="http://www.w3.org/2000/svg">
<g id="Vector">
<path d="M11.3269 0L1.73948 3.13467e-07C0.787729 3.13467e-07 0.016181 0.783633 0.016181 1.75029C0.016181 2.62548 0.648613 3.35064 1.47463 3.48004H5.54207C6.53627 3.48004 7.34223 4.29863 7.34223 5.3084C7.34223 6.30445 6.55804 7.11446 5.58252 7.13631C4.67392 7.17921 3.95024 7.94129 3.95024 8.87473C3.95024 9.83572 4.71726 10.6148 5.66343 10.6148H8.49515V10.6228C9.42945 10.6657 10.1739 11.4486 10.1739 12.4082C10.1739 13.3677 9.42945 14.1507 8.49515 14.1936V14.1973C7.56084 14.2403 6.81634 15.0232 6.81634 15.9827C6.81634 16.9698 7.60419 17.77 8.57605 17.77H11.246C11.2906 17.77 11.3349 17.7683 11.3787 17.765C13.6532 17.7321 15.8276 16.8001 17.4384 15.1641C19.0786 13.4983 20 11.2388 20 8.88294C20 6.52704 19.0786 4.26763 17.4384 2.60175C15.8154 0.953318 13.6201 0.0193672 11.3269 0Z" fill="white"/>
<path d="M1.73948 17.7495C2.70017 17.7495 3.47896 16.9585 3.47896 15.9827C3.47896 15.007 2.70017 14.216 1.73948 14.216C0.778793 14.216 0 15.007 0 15.9827C0 16.9585 0.778793 17.7495 1.73948 17.7495Z" fill="white"/>
</g>
</svg>
