<svg width="44" height="44" viewBox="0 0 44 44" fill="none" xmlns="http://www.w3.org/2000/svg">
<g id="Group">
<path id="Vector" d="M21.5183 43.0366C33.4025 43.0366 43.0366 33.4025 43.0366 21.5183C43.0366 9.63407 33.4025 0 21.5183 0C9.63407 0 0 9.63407 0 21.5183C0 33.4025 9.63407 43.0366 21.5183 43.0366Z" fill="#627EEA"/>
<g id="Group_2">
<path id="Vector_2" d="M22.1882 5.37958V17.3088L32.2709 21.8142L22.1882 5.37958Z" fill="white" fill-opacity="0.602"/>
<path id="Vector_3" d="M22.188 5.37958L12.104 21.8142L22.188 17.3088V5.37958Z" fill="white"/>
<path id="Vector_4" d="M22.1882 29.5446V37.6503L32.2776 23.6917L22.1882 29.5446Z" fill="white" fill-opacity="0.602"/>
<path id="Vector_5" d="M22.188 37.6503V29.5433L12.104 23.6917L22.188 37.6503Z" fill="white"/>
<path id="Vector_6" d="M22.1882 27.6685L32.2709 21.8142L22.1882 17.3115V27.6685Z" fill="white" fill-opacity="0.2"/>
<path id="Vector_7" d="M12.104 21.8142L22.188 27.6685V17.3115L12.104 21.8142Z" fill="white" fill-opacity="0.602"/>
</g>
</g>
</svg>
