<svg width="26" height="27" viewBox="0 0 26 27" fill="none" xmlns="http://www.w3.org/2000/svg">
<path fill-rule="evenodd" clip-rule="evenodd" d="M20.0003 11C20.3431 11 20.6322 10.7448 20.6747 10.4046L21.0598 7.32404C21.1344 6.72719 20.669 6.20001 20.0675 6.20001H19.9331C19.3316 6.20001 18.8662 6.72719 18.9408 7.32404L19.3259 10.4046C19.3684 10.7448 19.6575 11 20.0003 11ZM13.0441 14.27L8.84833 7.5568C8.45666 6.93014 7.544 6.93014 7.15233 7.5568L2.95658 14.27C2.5403 14.9361 3.01914 15.8 3.80458 15.8H8.00033H12.1961C12.9815 15.8 13.4604 14.9361 13.0441 14.27ZM14.9566 13.73L19.1523 20.4432C19.544 21.0699 20.4567 21.0699 20.8483 20.4432L25.0441 13.73C25.4604 13.064 24.9815 12.2 24.1961 12.2L20.0003 12.2L15.8046 12.2C15.0192 12.2 14.5403 13.064 14.9566 13.73ZM7.32585 17.5954C7.36837 17.2552 7.6575 17 8.00027 17C8.34304 17 8.63218 17.2552 8.67469 17.5954L9.05977 20.676C9.13437 21.2728 8.66899 21.8 8.06749 21.8H7.93305C7.33155 21.8 6.86617 21.2728 6.94078 20.676L7.32585 17.5954Z" fill="#666666"/>
</svg>
