<svg width="24" height="24" viewBox="0 0 24 24" fill="none" xmlns="http://www.w3.org/2000/svg">
<g id="expand 1">
<g id="Group">
<path id="Vector" d="M4 8.8V5.6C4 5.17565 4.16857 4.76869 4.46863 4.46863C4.76869 4.16857 5.17565 4 5.6 4H8.8" stroke="white" stroke-width="1.5" stroke-miterlimit="10" stroke-linecap="round"/>
<path id="Vector_2" d="M15.2 4H18.4C18.8243 4 19.2313 4.16857 19.5313 4.46863C19.8314 4.76869 20 5.17565 20 5.6V8.8" stroke="white" stroke-width="1.5" stroke-miterlimit="10" stroke-linecap="round"/>
<path id="Vector_3" d="M20 15.2V18.4C20 18.8244 19.8314 19.2313 19.5313 19.5314C19.2313 19.8314 18.8243 20 18.4 20H15.2" stroke="white" stroke-width="1.5" stroke-miterlimit="10" stroke-linecap="round"/>
<path id="Vector_4" d="M8.8 20H5.6C5.17565 20 4.76869 19.8314 4.46863 19.5314C4.16857 19.2313 4 18.8244 4 18.4V15.2" stroke="white" stroke-width="1.5" stroke-miterlimit="10" stroke-linecap="round"/>
</g>
</g>
</svg>
