<svg width="24" height="24" viewBox="0 0 24 24" fill="none" xmlns="http://www.w3.org/2000/svg">
<g id="Frame" clip-path="url(#clip0_1_1518)">
<path id="Vector" d="M4.05005 11C4.30293 9.07074 5.25027 7.29978 6.71473 6.01862C8.17918 4.73747 10.0604 4.03395 12.0061 4.03977C13.9519 4.04559 15.8288 4.76034 17.2856 6.05023C18.7423 7.34012 19.6791 9.11672 19.9204 11.0475C20.1618 12.9782 19.6912 14.9307 18.5967 16.5395C17.5023 18.1483 15.8591 19.3031 13.9746 19.7877C12.0902 20.2723 10.0937 20.0534 8.35892 19.1722C6.62417 18.2909 5.27005 16.8077 4.55005 15M4.05005 20V15H9.05005" stroke="#808287" stroke-width="1.5" stroke-linecap="round" stroke-linejoin="round"/>
<path id="Vector_2" d="M19.9212 11.0474C20.1625 12.9781 19.6919 14.9306 18.5975 16.5394C17.503 18.1482 15.8598 19.303 13.9753 19.7876C12.0909 20.2722 10.0944 20.0534 8.35966 19.1721C6.6249 18.2909 5.27078 16.8076 4.55078 14.9999M4.05078 19.9999V14.9999H9.05078" stroke="white" stroke-width="1.5" stroke-linecap="round" stroke-linejoin="round"/>
</g>
<defs>
<clipPath id="clip0_1_1518">
<rect width="24" height="24" fill="white"/>
</clipPath>
</defs>
</svg>
