<svg width="24" height="25" viewBox="0 0 24 25" fill="none" xmlns="http://www.w3.org/2000/svg">
<path d="M5.36607 21.3615L5.92135 20.8573H5.92135L5.36607 21.3615ZM6.5 22.1262L6.125 22.7758H6.125L6.5 22.1262ZM4.85291 19.8612L5.60063 19.9196L4.85291 19.8612ZM5.28094 18.5621L4.58671 18.2783H4.58671L5.28094 18.5621ZM5.07824 16.6138L4.429 16.9893L4.42978 16.9906L5.07824 16.6138ZM5.06149 16.5849L4.41146 16.959L4.41225 16.9603L5.06149 16.5849ZM3.47707 15.4378L3.57841 14.6947H3.57841L3.47707 15.4378ZM2.13807 15.159L1.81485 15.8358L1.81485 15.8358L2.13807 15.159ZM1.09535 13.9644L1.8096 13.7356H1.8096L1.09535 13.9644ZM1.09535 11.2356L1.8096 11.4645L1.8096 11.4645L1.09535 11.2356ZM2.13807 10.0411L1.81485 9.36431H1.81485L2.13807 10.0411ZM3.47708 9.76226L3.57841 10.5054H3.57841L3.47708 9.76226ZM5.06148 8.61524L4.41224 8.23976L4.41146 8.24112L5.06148 8.61524ZM5.07823 8.58628L4.42978 8.20944L4.42899 8.2108L5.07823 8.58628ZM5.28094 6.63794L5.97527 6.35409L5.9703 6.3425L5.28094 6.63794ZM5.28094 6.63793L4.57609 6.89423C4.58089 6.90742 4.58605 6.92047 4.59158 6.93336L5.28094 6.63793ZM5.28093 6.63791L5.98577 6.3816C5.98242 6.37237 5.97888 6.3632 5.97516 6.35411L5.28093 6.63791ZM4.85291 5.33891L5.60063 5.28044V5.28044L4.85291 5.33891ZM5.36607 3.83861L4.81078 3.33447L5.36607 3.83861ZM6.5 3.07384L6.875 3.72335C6.88894 3.7153 6.90262 3.7068 6.91602 3.69787L6.5 3.07384ZM6.5 3.07383L6.13751 2.41725C6.11922 2.42735 6.10136 2.4382 6.08397 2.44979L6.5 3.07383ZM6.50001 3.07383L6.86249 3.73041C6.86669 3.7281 6.87086 3.72574 6.875 3.72335L6.50001 3.07383ZM7.72928 2.47421L7.88824 3.20717L7.72928 2.47421ZM9.28515 2.77995L9.70964 2.16165V2.16165L9.28515 2.77995ZM10.1961 3.80015L10.789 3.34083V3.34083L10.1961 3.80015ZM11.9837 4.60006L11.9829 3.85006L11.9822 3.85006L11.9837 4.60006ZM12 4.60004L12.0007 3.85004L11.9992 3.85004L12 4.60004ZM12.0161 4.60006L12.0175 3.85006L12.0168 3.85006L12.0161 4.60006ZM13.8039 3.80001L14.3968 4.25933V4.25932L13.8039 3.80001ZM14.7148 2.77981L14.2903 2.1615V2.1615L14.7148 2.77981ZM16.2707 2.47407L16.1118 3.20703L16.2707 2.47407ZM17.5 3.07369L17.125 3.72321V3.72321L17.5 3.07369ZM18.6339 3.83847L19.1892 3.33432L19.1892 3.33432L18.6339 3.83847ZM19.1471 5.33876L18.3994 5.28029V5.28029L19.1471 5.33876ZM18.7191 6.63777L18.0248 6.35397C18.0163 6.3747 18.0088 6.3958 18.0022 6.41721L18.7191 6.63777ZM18.719 6.63779L19.4133 6.92159C19.4218 6.90086 19.4293 6.87976 19.4359 6.85835L18.719 6.63779ZM18.9218 8.5863L19.571 8.21083L19.5702 8.20947L18.9218 8.5863ZM18.9385 8.61524L19.5885 8.24112L19.5878 8.23976L18.9385 8.61524ZM20.5229 9.76226L20.4216 10.5054L20.5229 9.76226ZM21.8619 10.0411L21.5387 10.7179L21.8619 10.0411ZM22.9046 11.2356L22.1904 11.4645V11.4645L22.9046 11.2356ZM22.9046 13.9644L22.1904 13.7356V13.7356L22.9046 13.9644ZM21.8619 15.159L22.1852 15.8358L22.1852 15.8358L21.8619 15.159ZM20.5229 15.4378L20.4216 14.6947H20.4216L20.5229 15.4378ZM18.9385 16.5849L19.5878 16.9603L19.5885 16.959L18.9385 16.5849ZM18.9218 16.6138L19.5702 16.9906L19.571 16.9892L18.9218 16.6138ZM18.7191 18.5623L19.4133 18.2785V18.2785L18.7191 18.5623ZM19.1471 19.8613L19.8948 19.8029V19.8028L19.1471 19.8613ZM18.6339 21.3616L19.1892 21.8658V21.8658L18.6339 21.3616ZM17.5 22.1264L17.875 22.7759L17.5 22.1264ZM16.2707 22.726L16.1118 21.9931H16.1118L16.2707 22.726ZM14.7148 22.4203L15.1393 21.802H15.1393L14.7148 22.4203ZM13.8039 21.4001L14.3968 20.9408L13.8039 21.4001ZM12.0161 20.6L12.0168 21.35L12.0175 21.35L12.0161 20.6ZM12 20.6L11.9993 21.35L12.0007 21.35L12 20.6ZM11.9837 20.6L11.9822 21.35L11.983 21.35L11.9837 20.6ZM10.1961 21.3999L9.60323 20.9406L9.60323 20.9406L10.1961 21.3999ZM9.28515 22.4201L9.70964 23.0384L9.70965 23.0384L9.28515 22.4201ZM7.72928 22.7259L7.88824 21.9929H7.88823L7.72928 22.7259ZM4.81078 21.8656C5.11916 22.2053 5.55685 22.4477 6.125 22.7758L6.875 21.4767C6.21135 21.0936 6.03315 20.9805 5.92135 20.8573L4.81078 21.8656ZM4.10519 19.8027C4.04612 20.5582 4.30141 21.3046 4.81078 21.8656L5.92135 20.8573C5.68982 20.6023 5.57378 20.263 5.60063 19.9196L4.10519 19.8027ZM4.58671 18.2783C4.33846 18.8856 4.14096 19.3453 4.10519 19.8027L5.60063 19.9196C5.61359 19.7538 5.6852 19.5553 5.97517 18.8459L4.58671 18.2783ZM4.42978 16.9906C4.68778 17.4346 4.73859 17.9068 4.58671 18.2783L5.97517 18.8459C6.34341 17.9452 6.15931 16.9814 5.72669 16.237L4.42978 16.9906ZM4.41225 16.9603L4.429 16.9893L5.72748 16.2383L5.71073 16.2094L4.41225 16.9603ZM3.37574 16.181C3.77258 16.2351 4.15563 16.5145 4.41147 16.959L5.71152 16.2107C5.28285 15.4659 4.54121 14.826 3.57841 14.6947L3.37574 16.181ZM1.81485 15.8358C2.22882 16.0335 2.72572 16.0923 3.37574 16.181L3.57841 14.6947C2.81913 14.5912 2.61138 14.5539 2.46129 14.4822L1.81485 15.8358ZM0.381112 14.1933C0.612306 14.9149 1.13104 15.5092 1.81485 15.8358L2.46129 14.4822C2.15047 14.3338 1.91468 14.0637 1.8096 13.7356L0.381112 14.1933ZM0.25 12.6C0.25 13.2561 0.241147 13.7564 0.381112 14.1933L1.8096 13.7356C1.75885 13.5772 1.75 13.3664 1.75 12.6H0.25ZM0.381112 11.0068C0.241147 11.4437 0.25 11.944 0.25 12.6H1.75C1.75 11.8337 1.75885 11.6229 1.8096 11.4645L0.381112 11.0068ZM1.81485 9.36431C1.13104 9.69089 0.612306 10.2852 0.381112 11.0068L1.8096 11.4645C1.91469 11.1364 2.15047 10.8663 2.46129 10.7179L1.81485 9.36431ZM3.37574 9.01914C2.72572 9.10778 2.22882 9.1666 1.81485 9.36431L2.46129 10.7179C2.61138 10.6462 2.81913 10.6089 3.57841 10.5054L3.37574 9.01914ZM4.41146 8.24112C4.15562 8.68563 3.77258 8.96503 3.37574 9.01914L3.57841 10.5054C4.54121 10.3741 5.28285 9.73416 5.71151 8.98936L4.41146 8.24112ZM4.42899 8.2108L4.41224 8.23976L5.71073 8.99072L5.72748 8.96176L4.42899 8.2108ZM4.58671 6.92174C4.73859 7.29326 4.68778 7.76548 4.42978 8.20945L5.72669 8.96312C6.15931 8.21868 6.34341 7.25491 5.97517 6.35413L4.58671 6.92174ZM4.59158 6.93336L4.59158 6.93337L5.9703 6.3425L5.97029 6.34249L4.59158 6.93336ZM4.57609 6.89422L4.57609 6.89423L5.98578 6.38162L5.98577 6.3816L4.57609 6.89422ZM4.10519 5.39738C4.14096 5.85474 4.33846 6.31447 4.5867 6.92171L5.97516 6.35411C5.68519 5.6448 5.61359 5.44625 5.60063 5.28044L4.10519 5.39738ZM4.81078 3.33447C4.30141 3.89552 4.04612 4.6419 4.10519 5.39738L5.60063 5.28044C5.57378 4.93704 5.68982 4.59778 5.92135 4.34276L4.81078 3.33447ZM6.125 2.42432C5.55685 2.75234 5.11916 2.99481 4.81078 3.33447L5.92135 4.34276C6.03315 4.21962 6.21135 4.10651 6.875 3.72335L6.125 2.42432ZM6.08397 2.44979L6.08397 2.4498L6.91602 3.69787L6.91602 3.69787L6.08397 2.44979ZM6.13752 2.41725L6.13751 2.41725L6.86249 3.73042L6.86249 3.73041L6.13752 2.41725ZM7.57032 1.74125C7.12198 1.83848 6.69315 2.09629 6.12501 2.42431L6.875 3.72335C7.53864 3.3402 7.72569 3.24243 7.88824 3.20717L7.57032 1.74125ZM9.70964 2.16165C9.08492 1.73275 8.31089 1.58064 7.57032 1.74125L7.88824 3.20717C8.22486 3.13417 8.57669 3.20331 8.86066 3.39826L9.70964 2.16165ZM10.789 3.34083C10.3872 2.82222 10.0879 2.4213 9.70964 2.16165L8.86066 3.39826C8.99777 3.4924 9.13392 3.65369 9.60323 4.25947L10.789 3.34083ZM11.9822 3.85006C11.4695 3.85108 11.0352 3.65856 10.789 3.34083L9.60323 4.25947C10.1985 5.02788 11.1239 5.35178 11.9852 5.35006L11.9822 3.85006ZM11.9992 3.85004L11.9829 3.85006L11.9844 5.35006L12.0008 5.35004L11.9992 3.85004ZM12.0168 3.85006L12.0007 3.85004L11.9993 5.35004L12.0153 5.35006L12.0168 3.85006ZM13.211 3.34069C12.9648 3.6585 12.5303 3.85107 12.0175 3.85006L12.0146 5.35006C12.8759 5.35175 13.8014 5.02781 14.3968 4.25933L13.211 3.34069ZM14.2903 2.1615C13.9121 2.42115 13.6127 2.82207 13.211 3.34069L14.3968 4.25932C14.8661 3.65354 15.0022 3.49225 15.1393 3.39812L14.2903 2.1615ZM16.4297 1.7411C15.6891 1.5805 14.9151 1.7326 14.2903 2.1615L15.1393 3.39812C15.4233 3.20316 15.7751 3.13402 16.1118 3.20703L16.4297 1.7411ZM17.875 2.42417C17.3068 2.09615 16.878 1.83834 16.4297 1.7411L16.1118 3.20703C16.2743 3.24228 16.4614 3.34005 17.125 3.72321L17.875 2.42417ZM19.1892 3.33432C18.8808 2.99467 18.4431 2.75219 17.875 2.42417L17.125 3.72321C17.7886 4.10636 17.9668 4.21947 18.0786 4.34261L19.1892 3.33432ZM19.8948 5.39723C19.9539 4.64175 19.6986 3.89537 19.1892 3.33432L18.0786 4.34261C18.3102 4.59763 18.4262 4.93689 18.3994 5.28029L19.8948 5.39723ZM19.4133 6.92158C19.6615 6.31433 19.859 5.85459 19.8948 5.39723L18.3994 5.28029C18.3864 5.44611 18.3148 5.64466 18.0248 6.35397L19.4133 6.92158ZM19.4359 6.85835L19.4359 6.85833L18.0022 6.41721L18.0022 6.41722L19.4359 6.85835ZM19.5702 8.20947C19.3122 7.76544 19.2614 7.29316 19.4133 6.92159L18.0248 6.35399C17.6566 7.25482 17.8407 8.21865 18.2733 8.96314L19.5702 8.20947ZM19.5878 8.23976L19.571 8.21083L18.2725 8.96178L18.2893 8.99071L19.5878 8.23976ZM20.6243 9.01914C20.2274 8.96503 19.8444 8.68563 19.5885 8.24112L18.2885 8.98936C18.7171 9.73416 19.4588 10.3741 20.4216 10.5054L20.6243 9.01914ZM22.1852 9.36432C21.7712 9.1666 21.2743 9.10778 20.6243 9.01914L20.4216 10.5054C21.1809 10.6089 21.3886 10.6462 21.5387 10.7179L22.1852 9.36432ZM23.6189 11.0068C23.3877 10.2852 22.869 9.6909 22.1852 9.36432L21.5387 10.7179C21.8495 10.8663 22.0853 11.1364 22.1904 11.4645L23.6189 11.0068ZM23.75 12.6C23.75 11.944 23.7589 11.4437 23.6189 11.0068L22.1904 11.4645C22.2411 11.6229 22.25 11.8337 22.25 12.6H23.75ZM23.6189 14.1933C23.7589 13.7564 23.75 13.2561 23.75 12.6H22.25C22.25 13.3664 22.2411 13.5772 22.1904 13.7356L23.6189 14.1933ZM22.1852 15.8358C22.869 15.5092 23.3877 14.9149 23.6189 14.1933L22.1904 13.7356C22.0853 14.0637 21.8495 14.3338 21.5387 14.4822L22.1852 15.8358ZM20.6243 16.181C21.2743 16.0923 21.7712 16.0335 22.1852 15.8358L21.5387 14.4822C21.3886 14.5539 21.1809 14.5912 20.4216 14.6947L20.6243 16.181ZM19.5885 16.959C19.8444 16.5145 20.2274 16.2351 20.6243 16.181L20.4216 14.6947C19.4588 14.826 18.7171 15.4659 18.2885 16.2107L19.5885 16.959ZM19.571 16.9892L19.5878 16.9603L18.2892 16.2094L18.2725 16.2383L19.571 16.9892ZM19.4133 18.2785C19.2614 17.9069 19.3122 17.4346 19.5702 16.9906L18.2733 16.2369C17.8407 16.9814 17.6566 17.9453 18.0248 18.8461L19.4133 18.2785ZM19.8948 19.8028C19.859 19.3455 19.6615 18.8857 19.4133 18.2785L18.0248 18.8461C18.3148 19.5554 18.3864 19.754 18.3994 19.9198L19.8948 19.8028ZM19.1892 21.8658C19.6986 21.3047 19.9539 20.5583 19.8948 19.8029L18.3994 19.9198C18.4262 20.2632 18.3102 20.6024 18.0786 20.8575L19.1892 21.8658ZM17.875 22.7759C18.4431 22.4479 18.8808 22.2054 19.1892 21.8658L18.0786 20.8575C17.9668 20.9806 17.7886 21.0937 17.125 21.4769L17.875 22.7759ZM16.4297 23.459C16.878 23.3617 17.3069 23.1039 17.875 22.7759L17.125 21.4769C16.4614 21.86 16.2743 21.9578 16.1118 21.9931L16.4297 23.459ZM14.2903 23.0386C14.9151 23.4675 15.6891 23.6196 16.4297 23.459L16.1118 21.9931C15.7751 22.0661 15.4233 21.9969 15.1393 21.802L14.2903 23.0386ZM13.211 21.8594C13.6127 22.378 13.9121 22.7789 14.2903 23.0386L15.1393 21.802C15.0022 21.7078 14.8661 21.5465 14.3968 20.9408L13.211 21.8594ZM12.0175 21.35C12.5303 21.349 12.9648 21.5416 13.211 21.8594L14.3968 20.9408C13.8014 20.1723 12.8759 19.8483 12.0146 19.85L12.0175 21.35ZM12.0007 21.35L12.0168 21.35L12.0153 19.85L11.9993 19.85L12.0007 21.35ZM11.983 21.35L11.9993 21.35L12.0007 19.85L11.9844 19.85L11.983 21.35ZM10.789 21.8592C11.0352 21.5415 11.4695 21.349 11.9822 21.35L11.9852 19.85C11.1239 19.8483 10.1985 20.1722 9.60323 20.9406L10.789 21.8592ZM9.70965 23.0384C10.0879 22.7788 10.3872 22.3779 10.789 21.8592L9.60323 20.9406C9.13392 21.5464 8.99777 21.7077 8.86066 21.8018L9.70965 23.0384ZM7.57032 23.4588C8.31089 23.6194 9.08492 23.4673 9.70964 23.0384L8.86066 21.8018C8.57669 21.9968 8.22486 22.0659 7.88824 21.9929L7.57032 23.4588ZM6.125 22.7758C6.69314 23.1038 7.12198 23.3616 7.57032 23.4588L7.88823 21.9929C7.72569 21.9577 7.53864 21.8599 6.875 21.4767L6.125 22.7758ZM14.25 12.6C14.25 13.8426 13.2426 14.85 12 14.85V16.35C14.0711 16.35 15.75 14.6711 15.75 12.6H14.25ZM12 10.35C13.2426 10.35 14.25 11.3574 14.25 12.6H15.75C15.75 10.5289 14.0711 8.85001 12 8.85001V10.35ZM9.75 12.6C9.75 11.3574 10.7574 10.35 12 10.35V8.85001C9.92893 8.85001 8.25 10.5289 8.25 12.6H9.75ZM12 14.85C10.7574 14.85 9.75 13.8426 9.75 12.6H8.25C8.25 14.6711 9.92893 16.35 12 16.35V14.85Z" fill="#666666"/>
</svg>
