<svg width="16" height="17" viewBox="0 0 16 17" fill="none" xmlns="http://www.w3.org/2000/svg">
<path d="M8.01001 0C3.60451 0 0 3.60451 0 8.01001C0 12.4155 3.60451 16.02 8.01001 16.02C10.2128 16.02 12.2553 15.1589 13.6971 13.6971L12.2553 12.2553C11.174 13.3367 9.67209 14.0175 7.98999 14.0175C4.66583 14.0175 1.98248 11.3342 1.98248 8.01001C1.98248 4.68586 4.66583 2.0025 7.98999 2.0025C9.65207 2.0025 11.0939 2.7234 12.1752 3.82478L9.99249 6.00751H16V0L13.617 2.38298C12.1752 0.941177 10.1927 0 7.98999 0H8.01001Z" fill="white"/>
</svg>
