<svg width="248" height="217" viewBox="0 0 248 217" fill="none" xmlns="http://www.w3.org/2000/svg">
<path fill-rule="evenodd" clip-rule="evenodd" d="M140 0H139.1H69L21.5 3.8147e-06C9.73633 3.8147e-06 0.199997 9.53634 0.199997 21.3C0.199997 31.9505 8.01685 40.7752 18.2264 42.35H68.5C80.7883 42.35 90.75 52.3117 90.75 64.6C90.75 76.7212 81.0574 86.5786 69 86.8445V86.8482C57.7697 87.3703 48.825 96.6406 48.825 108C48.825 119.695 58.3054 129.175 70 129.175H105V129.273C116.548 129.795 125.75 139.323 125.75 151C125.75 162.677 116.548 172.205 105 172.727V172.773C93.452 173.295 84.25 182.823 84.25 194.5C84.25 206.512 93.9878 216.25 106 216.25H139C139.552 216.25 140.099 216.229 140.641 216.189C168.754 215.789 195.629 204.447 215.538 184.538C235.811 164.266 247.2 136.77 247.2 108.1C247.2 79.4301 235.811 51.9344 215.538 31.6617C195.478 11.6013 168.345 0.239429 140 0.00374157V0ZM21.5 216C33.3741 216 43 206.374 43 194.5C43 182.626 33.3741 173 21.5 173C9.62588 173 0 182.626 0 194.5C0 206.374 9.62588 216 21.5 216Z" fill="#D9D9D9"/>
</svg>
