<svg width="22" height="22" viewBox="0 0 22 22" fill="none" xmlns="http://www.w3.org/2000/svg">
<path fill-rule="evenodd" clip-rule="evenodd" d="M4.2 0.250001L4.16957 0.25C3.63541 0.24999 3.18956 0.249981 2.82533 0.27974C2.44545 0.310778 2.08879 0.377889 1.75153 0.549733C1.23408 0.813385 0.813385 1.23408 0.549733 1.75153C0.377889 2.08879 0.310778 2.44545 0.27974 2.82533C0.249981 3.18956 0.24999 3.63541 0.25 4.16957L0.250001 4.2V7.8L0.25 7.83044C0.24999 8.36459 0.249981 8.81044 0.27974 9.17467C0.310778 9.55455 0.377889 9.91121 0.549733 10.2485C0.813385 10.7659 1.23408 11.1866 1.75153 11.4503C2.08879 11.6221 2.44545 11.6892 2.82533 11.7203C3.18955 11.75 3.63538 11.75 4.16951 11.75H4.16955H4.2H5.8H5.83045H5.83049C6.36462 11.75 6.81045 11.75 7.17467 11.7203C7.55456 11.6892 7.91121 11.6221 8.24848 11.4503C8.76592 11.1866 9.18662 10.7659 9.45027 10.2485C9.62211 9.91121 9.68922 9.55455 9.72026 9.17467C9.75002 8.81045 9.75001 8.36462 9.75 7.83049V7.83045V7.8V4.2V4.16955V4.16951C9.75001 3.63538 9.75002 3.18955 9.72026 2.82533C9.68922 2.44545 9.62211 2.08879 9.45027 1.75153C9.18662 1.23408 8.76592 0.813385 8.24848 0.549733C7.91121 0.377889 7.55456 0.310778 7.17467 0.27974C6.81044 0.249981 6.36459 0.24999 5.83044 0.25L5.8 0.250001H4.2ZM2.43251 1.88624C2.52307 1.8401 2.66036 1.79822 2.94748 1.77476C3.24336 1.75058 3.62757 1.75 4.2 1.75H5.8C6.37243 1.75 6.75664 1.75058 7.05252 1.77476C7.33965 1.79822 7.47693 1.8401 7.56749 1.88624C7.80269 2.00608 7.99392 2.19731 8.11376 2.43251C8.1599 2.52307 8.20178 2.66036 8.22524 2.94748C8.24942 3.24336 8.25 3.62757 8.25 4.2V7.8C8.25 8.37243 8.24942 8.75664 8.22524 9.05252C8.20178 9.33965 8.1599 9.47693 8.11376 9.56749C7.99392 9.80269 7.80269 9.99392 7.56749 10.1138C7.47693 10.1599 7.33965 10.2018 7.05252 10.2252C6.75664 10.2494 6.37243 10.25 5.8 10.25H4.2C3.62757 10.25 3.24336 10.2494 2.94748 10.2252C2.66036 10.2018 2.52307 10.1599 2.43251 10.1138C2.19731 9.99392 2.00608 9.80269 1.88624 9.56749C1.8401 9.47693 1.79822 9.33965 1.77476 9.05252C1.75058 8.75664 1.75 8.37243 1.75 7.8V4.2C1.75 3.62757 1.75058 3.24336 1.77476 2.94748C1.79822 2.66036 1.8401 2.52307 1.88624 2.43251C2.00608 2.19731 2.19731 2.00608 2.43251 1.88624ZM4 14.25H3.97475C3.53029 14.25 3.15925 14.25 2.85464 14.2708C2.53754 14.2924 2.23801 14.339 1.94762 14.4593C1.27379 14.7384 0.73844 15.2738 0.459332 15.9476C0.339049 16.238 0.292406 16.5375 0.270771 16.8546C0.249987 17.1592 0.249993 17.5303 0.250001 17.9747L0.250001 18L0.250001 18.0253C0.249993 18.4697 0.249987 18.8408 0.270771 19.1454C0.292406 19.4625 0.339049 19.762 0.459332 20.0524C0.73844 20.7262 1.27379 21.2616 1.94762 21.5407C2.23801 21.661 2.53754 21.7076 2.85464 21.7292C3.15925 21.75 3.53028 21.75 3.97474 21.75H4H6H6.02526C6.46972 21.75 6.84075 21.75 7.14537 21.7292C7.46247 21.7076 7.76199 21.661 8.05238 21.5407C8.72621 21.2616 9.26156 20.7262 9.54067 20.0524C9.66095 19.762 9.70759 19.4625 9.72923 19.1454C9.75001 18.8408 9.75001 18.4697 9.75 18.0253V18V17.9747C9.75001 17.5303 9.75001 17.1592 9.72923 16.8546C9.70759 16.5375 9.66095 16.238 9.54067 15.9476C9.26156 15.2738 8.72621 14.7384 8.05238 14.4593C7.76199 14.339 7.46247 14.2924 7.14537 14.2708C6.84075 14.25 6.46971 14.25 6.02525 14.25H6H4ZM1.76729 19.0433C1.75041 18.7958 1.75 18.4762 1.75 18C1.75 17.5238 1.75041 17.2042 1.76729 16.9567C1.78372 16.716 1.81319 16.5988 1.84515 16.5216C1.97202 16.2154 2.21536 15.972 2.52165 15.8452C2.5988 15.8132 2.71602 15.7837 2.95674 15.7673C3.20421 15.7504 3.5238 15.75 4 15.75H6C6.4762 15.75 6.7958 15.7504 7.04326 15.7673C7.28399 15.7837 7.4012 15.8132 7.47836 15.8452C7.78464 15.972 8.02798 16.2154 8.15485 16.5216C8.18681 16.5988 8.21629 16.716 8.23271 16.9567C8.24959 17.2042 8.25 17.5238 8.25 18C8.25 18.4762 8.24959 18.7958 8.23271 19.0433C8.21629 19.284 8.18681 19.4012 8.15485 19.4784C8.02798 19.7846 7.78464 20.028 7.47836 20.1549C7.4012 20.1868 7.28399 20.2163 7.04326 20.2327C6.7958 20.2496 6.4762 20.25 6 20.25H4C3.5238 20.25 3.20421 20.2496 2.95674 20.2327C2.71602 20.2163 2.5988 20.1868 2.52165 20.1549C2.21536 20.028 1.97202 19.7846 1.84515 19.4784C1.81319 19.4012 1.78372 19.284 1.76729 19.0433ZM15.9747 0.250001L16 0.250001H18L18.0253 0.250001C18.4697 0.249993 18.8408 0.249987 19.1454 0.270771C19.4625 0.292406 19.762 0.339049 20.0524 0.459332C20.7262 0.73844 21.2616 1.27379 21.5407 1.94762C21.661 2.23801 21.7076 2.53754 21.7292 2.85464C21.75 3.15925 21.75 3.53028 21.75 3.97474V4V4.02526C21.75 4.46972 21.75 4.84075 21.7292 5.14537C21.7076 5.46247 21.661 5.76199 21.5407 6.05238C21.2616 6.72621 20.7262 7.26156 20.0524 7.54067C19.762 7.66095 19.4625 7.7076 19.1454 7.72923C18.8408 7.75001 18.4697 7.75001 18.0253 7.75H18H16H15.9747C15.5303 7.75001 15.1592 7.75001 14.8546 7.72923C14.5375 7.7076 14.238 7.66095 13.9476 7.54067C13.2738 7.26156 12.7384 6.72621 12.4593 6.05238C12.339 5.76199 12.2924 5.46247 12.2708 5.14537C12.25 4.84075 12.25 4.46971 12.25 4.02525V4V3.97475C12.25 3.53029 12.25 3.15925 12.2708 2.85464C12.2924 2.53754 12.339 2.23801 12.4593 1.94762C12.7384 1.27379 13.2738 0.73844 13.9476 0.459332C14.238 0.339049 14.5375 0.292406 14.8546 0.270771C15.1592 0.249987 15.5303 0.249993 15.9747 0.250001ZM13.75 4C13.75 4.4762 13.7504 4.7958 13.7673 5.04326C13.7837 5.28399 13.8132 5.4012 13.8452 5.47836C13.972 5.78464 14.2154 6.02798 14.5216 6.15485C14.5988 6.18681 14.716 6.21629 14.9567 6.23271C15.2042 6.24959 15.5238 6.25 16 6.25H18C18.4762 6.25 18.7958 6.24959 19.0433 6.23271C19.284 6.21629 19.4012 6.18681 19.4784 6.15485C19.7846 6.02798 20.028 5.78464 20.1549 5.47836C20.1868 5.4012 20.2163 5.28399 20.2327 5.04326C20.2496 4.7958 20.25 4.4762 20.25 4C20.25 3.5238 20.2496 3.20421 20.2327 2.95674C20.2163 2.71602 20.1868 2.5988 20.1549 2.52165C20.028 2.21536 19.7846 1.97202 19.4784 1.84515C19.4012 1.81319 19.284 1.78372 19.0433 1.76729C18.7958 1.75041 18.4762 1.75 18 1.75H16C15.5238 1.75 15.2042 1.75041 14.9567 1.76729C14.716 1.78372 14.5988 1.81319 14.5216 1.84515C14.2154 1.97202 13.972 2.21536 13.8452 2.52165C13.8132 2.5988 13.7837 2.71602 13.7673 2.95674C13.7504 3.20421 13.75 3.5238 13.75 4ZM16.2 10.25H16.1696C15.6354 10.25 15.1896 10.25 14.8253 10.2797C14.4454 10.3108 14.0888 10.3779 13.7515 10.5497C13.2341 10.8134 12.8134 11.2341 12.5497 11.7515C12.3779 12.0888 12.3108 12.4454 12.2797 12.8253C12.25 13.1896 12.25 13.6354 12.25 14.1696V14.2V17.8V17.8304C12.25 18.3646 12.25 18.8104 12.2797 19.1747C12.3108 19.5546 12.3779 19.9112 12.5497 20.2485C12.8134 20.7659 13.2341 21.1866 13.7515 21.4503C14.0888 21.6221 14.4454 21.6892 14.8253 21.7203C15.1895 21.75 15.6353 21.75 16.1694 21.75H16.1695H16.2H17.8H17.8305H17.8306C18.3647 21.75 18.8105 21.75 19.1747 21.7203C19.5546 21.6892 19.9112 21.6221 20.2485 21.4503C20.7659 21.1866 21.1866 20.7659 21.4503 20.2485C21.6221 19.9112 21.6892 19.5546 21.7203 19.1747C21.75 18.8105 21.75 18.3647 21.75 17.8306V17.8305V17.8V14.2V14.1695V14.1694C21.75 13.6353 21.75 13.1895 21.7203 12.8253C21.6892 12.4454 21.6221 12.0888 21.4503 11.7515C21.1866 11.2341 20.7659 10.8134 20.2485 10.5497C19.9112 10.3779 19.5546 10.3108 19.1747 10.2797C18.8104 10.25 18.3646 10.25 17.8304 10.25H17.8H16.2ZM14.4325 11.8862C14.5231 11.8401 14.6604 11.7982 14.9475 11.7748C15.2434 11.7506 15.6276 11.75 16.2 11.75H17.8C18.3724 11.75 18.7566 11.7506 19.0525 11.7748C19.3396 11.7982 19.4769 11.8401 19.5675 11.8862C19.8027 12.0061 19.9939 12.1973 20.1138 12.4325C20.1599 12.5231 20.2018 12.6604 20.2252 12.9475C20.2494 13.2434 20.25 13.6276 20.25 14.2V17.8C20.25 18.3724 20.2494 18.7566 20.2252 19.0525C20.2018 19.3396 20.1599 19.4769 20.1138 19.5675C19.9939 19.8027 19.8027 19.9939 19.5675 20.1138C19.4769 20.1599 19.3396 20.2018 19.0525 20.2252C18.7566 20.2494 18.3724 20.25 17.8 20.25H16.2C15.6276 20.25 15.2434 20.2494 14.9475 20.2252C14.6604 20.2018 14.5231 20.1599 14.4325 20.1138C14.1973 19.9939 14.0061 19.8027 13.8862 19.5675C13.8401 19.4769 13.7982 19.3396 13.7748 19.0525C13.7506 18.7566 13.75 18.3724 13.75 17.8V14.2C13.75 13.6276 13.7506 13.2434 13.7748 12.9475C13.7982 12.6604 13.8401 12.5231 13.8862 12.4325C14.0061 12.1973 14.1973 12.0061 14.4325 11.8862Z" fill="#666666"/>
</svg>
