<svg width="20" height="18" viewBox="0 0 20 18" fill="none" xmlns="http://www.w3.org/2000/svg">
<path d="M10 0C5.875 0 2.5 3.375 2.5 7.5V10H1.25C0.918479 10 0.600537 10.1317 0.366117 10.3661C0.131696 10.6005 0 10.9185 0 11.25L0 16.25C0 16.5815 0.131696 16.8995 0.366117 17.1339C0.600537 17.3683 0.918479 17.5 1.25 17.5H3.75C4.08152 17.5 4.39946 17.3683 4.63388 17.1339C4.8683 16.8995 5 16.5815 5 16.25V7.5C5 4.725 7.225 2.5 10 2.5C12.775 2.5 15 4.725 15 7.5V16.25C15 16.5815 15.1317 16.8995 15.3661 17.1339C15.6005 17.3683 15.9185 17.5 16.25 17.5H18.75C19.0815 17.5 19.3995 17.3683 19.6339 17.1339C19.8683 16.8995 20 16.5815 20 16.25V11.25C20 10.9185 19.8683 10.6005 19.6339 10.3661C19.3995 10.1317 19.0815 10 18.75 10H17.5V7.5C17.5 3.375 14.125 0 10 0Z" fill="#E9E9E9"/>
</svg>
