<svg width="20" height="20" viewBox="0 0 20 20" fill="none" xmlns="http://www.w3.org/2000/svg">
<path d="M10 0C4.5 0 0 4.5 0 10C0 15.5 4.5 20 10 20C15.5 20 20 15.5 20 10C20 4.5 15.5 0 10 0ZM10 2.5C14.15 2.5 17.5 5.85 17.5 10C17.5 14.15 14.15 17.5 10 17.5C5.85 17.5 2.5 14.15 2.5 10C2.5 5.85 5.85 2.5 10 2.5ZM10 5C9.3 5 8.75 5.55 8.75 6.25C8.75 6.95 9.3 7.5 10 7.5C10.7 7.5 11.25 6.95 11.25 6.25C11.25 5.55 10.7 5 10 5ZM5.85 7.5C5.64301 7.56646 5.45693 7.68576 5.31013 7.84612C5.16333 8.00647 5.0609 8.20234 5.01294 8.41438C4.96497 8.62643 4.97314 8.84732 5.03664 9.05524C5.10013 9.26316 5.21676 9.45093 5.375 9.6L7.65 11.875C7.6 12.075 7.5 12.275 7.5 12.5C7.5 13.875 8.625 15 10 15C11.375 15 12.5 13.875 12.5 12.5C12.5 11.125 11.375 10 10 10C9.775 10 9.575 10.1 9.375 10.15L7.1 7.875C6.96321 7.72362 6.79145 7.60802 6.59971 7.53829C6.40797 7.46857 6.20207 7.44684 6 7.475C5.95005 7.472 5.89995 7.472 5.85 7.475V7.5ZM13.75 7.5C13.05 7.5 12.5 8.05 12.5 8.75C12.5 9.45 13.05 10 13.75 10C14.45 10 15 9.45 15 8.75C15 8.05 14.45 7.5 13.75 7.5Z" fill="#E9E9E9"/>
</svg>
