<svg width="146" height="38" viewBox="0 0 146 38" fill="none" xmlns="http://www.w3.org/2000/svg">
<g id="Vector">
<path d="M24.6215 0L3.78116 6.70328e-07C1.71231 6.70328e-07 0.035173 1.67575 0.035173 3.74289C0.035173 5.61441 1.40991 7.16512 3.20543 7.44185H12.0469C14.2081 7.44185 15.96 9.19234 15.96 11.3517C15.96 13.4816 14.2554 15.2138 12.1349 15.2605C10.1598 15.3523 8.58674 16.9819 8.58674 18.978C8.58674 21.033 10.254 22.699 12.3107 22.699H18.4661V22.7161C20.497 22.8079 22.1154 24.4822 22.1154 26.5341C22.1154 28.586 20.497 30.2603 18.4661 30.3521V30.36C16.4352 30.4519 14.8169 32.1261 14.8169 34.178C14.8169 36.2888 16.5294 38 18.642 38H24.4456C24.5427 38 24.6389 37.9964 24.7342 37.9893C29.6783 37.9189 34.4049 35.926 37.9062 32.4275C41.4715 28.8652 43.4745 24.0336 43.4745 18.9956C43.4745 13.9577 41.4715 9.12605 37.9062 5.56368C34.3782 2.03861 29.6064 0.0414156 24.6215 0Z" fill="white"/>
<path d="M3.78116 37.9561C5.86943 37.9561 7.56231 36.2646 7.56231 34.178C7.56231 32.0915 5.86943 30.4 3.78116 30.4C1.69288 30.4 0 32.0915 0 34.178C0 36.2646 1.69288 37.9561 3.78116 37.9561Z" fill="white"/>
<path d="M92.5129 7.78015C94.0805 6.19995 95.4678 5.42372 97.5765 4.95243C98.0343 4.8554 98.7002 4.75837 99.0748 4.75837L99.7268 4.74451V9.54054L98.8805 9.70688C96.7719 10.095 95.1904 11.5366 94.6632 13.5465C94.6354 13.6565 94.6084 13.7574 94.5837 13.85C94.4769 14.2492 94.4119 14.4925 94.5026 14.6401C94.6437 14.8698 95.1617 14.8683 96.4859 14.8644C96.6714 14.8639 96.8727 14.8633 97.0909 14.8633H99.7268V19.4376L97.1326 19.4653L94.5245 19.5069L94.4829 26.2573L94.4551 33.0217H89.5996V23.2772C89.5996 14.0039 89.6135 13.4633 89.8771 12.4237C90.3349 10.5801 91.1534 9.15242 92.5129 7.78015Z" fill="white"/>
<path fill-rule="evenodd" clip-rule="evenodd" d="M63.7268 15.598C63.81 15.6118 63.8794 14.0039 63.9072 11.0376L63.9349 6.43559L66.2655 7.19797C67.5418 7.61381 68.6378 8.00193 68.6933 8.05737C68.7488 8.11282 68.7765 12.1188 68.7626 16.9564L68.721 25.7445L68.3326 26.8811C67.3476 29.792 64.8228 32.1623 61.854 32.9662C60.7441 33.2712 58.3442 33.2989 57.2759 33.0356C55.5557 32.6059 53.5303 31.4138 52.476 30.2078C51.6852 29.3069 50.9361 27.9623 50.5199 26.7148C50.0066 25.1623 49.9927 22.9029 50.4644 21.3781C51.0887 19.3682 52.1153 17.8435 53.6274 16.6791C55.4586 15.2653 57.165 14.697 59.565 14.697C60.9384 14.697 61.2436 14.7386 62.3395 15.1267C62.6045 15.2167 62.8593 15.3047 63.077 15.3798C63.4291 15.5014 63.6839 15.5894 63.7268 15.598ZM63.3939 25.8831C64.4482 23.7484 63.6436 21.1979 61.5488 20.0613C60.5499 19.5207 58.8297 19.4237 57.7476 19.8534C56.7488 20.2554 55.7083 21.295 55.3337 22.3069C54.0991 25.5504 56.7349 28.794 60.1754 28.2811C61.6043 28.0593 62.728 27.2138 63.3939 25.8831Z" fill="white"/>
<path fill-rule="evenodd" clip-rule="evenodd" d="M108.605 33.0217H113.738L113.766 28.6276L113.808 24.2197L116.721 24.1366C120.647 24.0118 122.09 23.6237 123.976 22.1821C125.794 20.7682 126.696 18.6475 126.696 15.7643C126.682 13.1306 126.071 11.5227 124.49 9.94252C123.449 8.88906 122.367 8.25143 121.022 7.84945C120.3 7.64153 119.398 7.59995 114.404 7.55836L108.605 7.50292V33.0217ZM119.718 12.798C120.591 13.2138 121.119 13.8237 121.355 14.6554C121.854 16.4851 121.119 18.19 119.537 18.897C118.871 19.188 118.552 19.2158 116.277 19.2712L113.738 19.3267V12.3405L116.346 12.396C118.802 12.4376 118.982 12.4514 119.718 12.798Z" fill="white"/>
<path d="M100.42 15.7643L102.751 14.9742C104.027 14.5445 105.109 14.1841 105.179 14.1841C105.234 14.1702 105.276 18.4118 105.276 23.596V33.0217H100.42V15.7643Z" fill="white"/>
<path fill-rule="evenodd" clip-rule="evenodd" d="M77.3222 14.8633C74.6725 15.39 72.1337 17.3029 70.8852 19.7009C70.1638 21.0871 69.8725 22.2653 69.8725 23.8039C69.8586 25.4811 70.0806 26.4791 70.8019 27.9623C73.0355 32.6059 78.7095 34.4771 83.3568 32.1207C84.2031 31.691 85.7152 30.5405 85.7152 30.3326C85.7152 30.2356 85.4517 29.9167 85.1326 29.6257C84.8587 29.3863 84.3128 28.8656 83.8034 28.3798C83.6935 28.2749 83.5851 28.1716 83.4817 28.0732L82.4274 27.0336L81.7892 27.5187C80.9291 28.1702 80.291 28.3781 79.0563 28.3781C77.78 28.3781 76.7395 27.9484 75.8655 27.0336L75.269 26.4375L88.2817 26.2989V24.3583C88.2678 22.7366 88.2262 22.2514 87.9488 21.3781C87.4493 19.7286 86.8667 18.7861 85.5765 17.4831C84.6193 16.5128 84.1753 16.1801 83.2181 15.7088C82.5661 15.39 81.6089 15.0435 81.0678 14.9326C80.0274 14.7108 78.2378 14.6831 77.3222 14.8633ZM80.943 19.8673C81.595 20.1861 82.8019 21.2118 82.8019 21.4613C82.8019 21.5583 78.7233 21.5999 75.6991 21.5168C75.3245 21.5168 75.3939 21.3366 75.9765 20.7682C77.2667 19.4653 79.2921 19.1049 80.943 19.8673Z" fill="white"/>
<path fill-rule="evenodd" clip-rule="evenodd" d="M127.597 27.9623C125.017 22.7504 127.889 16.5405 133.632 14.9881C134.936 14.6415 137.419 14.697 138.585 15.1128C140.554 15.8059 142.011 16.8039 143.079 18.1484C144.578 20.0613 145.091 21.6831 145.091 24.5247V26.3682H138.64C135.061 26.3682 132.189 26.4237 132.189 26.493C132.189 26.7286 133.465 27.7821 134.09 28.0455C135.713 28.7385 137.267 28.5029 138.917 27.2831C139.181 27.089 139.292 27.1722 140.901 28.6831C141.97 29.69 142.446 30.0849 142.406 30.4167C142.372 30.6923 141.981 30.9244 141.276 31.4276C138.501 33.4098 134.922 33.7009 131.856 32.2039C129.914 31.2474 128.568 29.9167 127.597 27.9623ZM139.528 21.4336C139.681 21.2811 138.335 20.1306 137.683 19.8395C136.92 19.5207 135.574 19.3821 134.881 19.5623C133.812 19.8395 132.439 20.7821 132.3 21.3504C132.272 21.489 132.994 21.5306 135.852 21.5168C137.835 21.5168 139.486 21.4752 139.528 21.4336Z" fill="white"/>
</g>
</svg>
