<svg width="17" height="16" viewBox="0 0 17 16" fill="none" xmlns="http://www.w3.org/2000/svg">
<path d="M8.68682 0C4.38119 0 0.858398 3.49994 0.858398 7.77764C0.858398 12.0553 4.38119 15.5553 8.68682 15.5553C10.8396 15.5553 12.8359 14.7192 14.245 13.2998L12.8359 11.8998C11.7791 12.9498 10.3112 13.6109 8.66725 13.6109C5.41846 13.6109 2.79593 11.0054 2.79593 7.77764C2.79593 4.54992 5.41846 1.94441 8.66725 1.94441C10.2917 1.94441 11.7008 2.6444 12.7576 3.71382L10.6244 5.83323H16.4957V0L14.1667 2.31385C12.7576 0.913873 10.8201 0 8.66725 0H8.68682Z" fill="white"/>
</svg>
