<svg width="46" height="46" viewBox="0 0 46 46" fill="none" xmlns="http://www.w3.org/2000/svg">
<g id="&#240;&#159;&#166;&#134; icon &#34;Tether Cryptocurrency&#34;">
<g id="Group">
<path id="Vector" d="M22.91 45.82C35.5628 45.82 45.82 35.5628 45.82 22.91C45.82 10.2572 35.5628 0 22.91 0C10.2572 0 0 10.2572 0 22.91C0 35.5628 10.2572 45.82 22.91 45.82Z" fill="#26A17B"/>
<path id="Vector_2" fill-rule="evenodd" clip-rule="evenodd" d="M25.6622 24.8903V24.8875C25.5047 24.8989 24.6929 24.9476 22.8815 24.9476C21.4354 24.9476 20.4173 24.9046 20.0593 24.8875V24.8917C14.4922 24.6469 10.3369 23.6775 10.3369 22.5177C10.3369 21.3593 14.4922 20.3899 20.0593 20.1408V23.9267C20.423 23.9524 21.4654 24.014 22.9059 24.014C24.6342 24.014 25.5004 23.9424 25.6622 23.9281V20.1436C31.2179 20.3914 35.3632 21.3607 35.3632 22.5177C35.3632 23.6775 31.2179 24.644 25.6622 24.8903ZM25.6622 19.7499V16.3621H33.4144V11.1959H12.3071V16.3621H20.0593V19.7485C13.7591 20.0377 9.021 21.2863 9.021 22.7812C9.021 24.276 13.7591 25.5232 20.0593 25.8139V36.6704H25.6622V25.811C31.9525 25.5218 36.6791 24.2746 36.6791 22.7812C36.6791 21.2877 31.9525 20.0406 25.6622 19.7499Z" fill="white"/>
</g>
</g>
</svg>
