<svg width="36" height="32" viewBox="0 0 36 32" fill="none" xmlns="http://www.w3.org/2000/svg">
<path d="M20.3884 0L3.13107 5.64487e-07C1.41791 5.64487e-07 0.0291258 1.41116 0.0291258 3.15191C0.0291258 4.72793 1.1675 6.03378 2.65433 6.26682H9.97573C11.7653 6.26682 13.216 7.74092 13.216 9.55931C13.216 11.353 11.8045 12.8116 10.0485 12.851C8.41306 12.9282 7.11044 14.3006 7.11044 15.9815C7.11044 17.712 8.49107 19.1149 10.1942 19.1149H15.2913V19.1294C16.973 19.2067 18.3131 20.6166 18.3131 22.3445C18.3131 24.0724 16.973 25.4823 15.2913 25.5597V25.5663C13.6095 25.6437 12.2694 27.0536 12.2694 28.7815C12.2694 30.559 13.6875 32 15.4369 32H20.2427C20.3231 32 20.4028 31.997 20.4817 31.991C24.5758 31.9317 28.4897 30.2535 31.3891 27.3074C34.3414 24.3075 36 20.2388 36 15.9963C36 11.7538 34.3414 7.68509 31.3891 4.68521C28.4676 1.71672 24.5162 0.0348763 20.3884 0Z" fill="white"/>
<path d="M3.13107 31.963C4.86031 31.963 6.26214 30.5386 6.26214 28.7815C6.26214 27.0244 4.86031 25.6 3.13107 25.6C1.40183 25.6 0 27.0244 0 28.7815C0 30.5386 1.40183 31.963 3.13107 31.963Z" fill="white"/>
</svg>
